Coordinates
version=1
nRows=11
nColumns=46
inDegrees=yes

Units are S.I. units (second, meters, Newtons, ...)
Angles are in degrees.

endheader
time	pelvis_tilt	pelvis_list	pelvis_rotation	pelvis_tx	pelvis_ty	pelvis_tz	bb_angle	bb_tx	bb_ty	bb_tz	hip_flexion_r	hip_adduction_r	hip_rotation_r	knee_angle_r	knee_angle_r_beta	ankle_angle_r	subtalar_angle_r	mtp_angle_r	crank_angle_r	hip_flexion_l	hip_adduction_l	hip_rotation_l	knee_angle_l	knee_angle_l_beta	ankle_angle_l	subtalar_angle_l	mtp_angle_l	crank_angle_l	lumbar_extension	lumbar_bending	lumbar_rotation	arm_flex_r	arm_add_r	arm_rot_r	elbow_flex_r	pro_sup_r	wrist_flex_r	wrist_dev_r	arm_flex_l	arm_add_l	arm_rot_l	elbow_flex_l	pro_sup_l	wrist_flex_l	wrist_dev_l
      7.50500000	    -19.36156242	     -2.28973811	      4.60259871	      0.34816434	      1.14775057	     -0.21784796	      0.00000000	      0.50000000	      0.00000000	      0.25000000	     77.68393309	     -1.12649776	     -0.40132780	    111.53386631	      1.94663319	     19.63653318	     -6.56274742	      0.00000000	      0.00000000	     30.34062761	    -12.46631911	     -6.60007440	     35.86905765	      0.62603316	     -7.27012839	     10.44810030	      0.00000000	      0.00000000	    -54.53875256	      4.96216732	     -7.65318997	     57.52188967	    -15.58046726	     45.82098122	     68.98848520	     47.31796449	      0.00000000	      0.00000000	     41.67766298	    -39.24892324	     23.86263966	     80.40833186	     51.52536048	      0.00000000	      0.00000000
      7.51000000	    -19.18905153	     -2.25648237	      4.64050966	      0.34617008	      1.14799736	     -0.21807980	      0.00000000	      0.50000000	      0.00000000	      0.25000000	     77.74945906	     -1.17743286	     -0.39697010	    111.21737675	      1.94110941	     19.52611003	     -6.82776732	      0.00000000	      0.00000000	     30.40336052	    -12.55851905	     -6.75708930	     36.42869328	      0.63580064	     -7.15850825	     10.42786838	      0.00000000	      0.00000000	    -54.59164137	      5.00118794	     -7.77351749	     57.84958275	    -15.36852047	     45.91436280	     68.69928686	     47.28764624	      0.00000000	      0.00000000	     41.94963324	    -39.26179642	     23.82341963	     80.21954743	     51.49402431	      0.00000000	      0.00000000
      7.51500000	    -19.01865049	     -2.17303845	      4.69301500	      0.34414139	      1.14828768	     -0.21837421	      0.00000000	      0.50000000	      0.00000000	      0.25000000	     77.80950160	     -1.30091986	     -0.40804093	    110.92250760	      1.93596297	     19.46639777	     -7.11021019	      0.00000000	      0.00000000	     30.48906279	    -12.60320724	     -6.95642357	     36.98325433	      0.64547956	     -7.22254257	     10.48049869	      0.00000000	      0.00000000	    -54.65309662	      4.97320622	     -7.93519516	     58.10138938	    -15.26091291	     45.96221019	     68.43050868	     47.25211594	      0.00000000	      0.00000000	     42.17792507	    -39.22932962	     23.81424208	     80.10437291	     51.47515264	      0.00000000	      0.00000000
      7.52000000	    -18.89093366	     -2.26866711	      4.66575971	      0.34211417	      1.14863421	     -0.21848251	      0.00000000	      0.50000000	      0.00000000	      0.25000000	     77.86456874	     -1.22057989	     -0.58358678	    110.55144629	      1.92948673	     19.06950341	     -7.90437083	      0.00000000	      0.00000000	     30.65225429	    -12.89096778	     -7.13669677	     37.53537943	      0.65511596	     -7.16181900	     10.82809374	      0.00000000	      0.00000000	    -54.54269145	      5.09477168	     -8.06739123	     58.74828188	    -14.66177361	     46.52332964	     66.89433332	     47.08848862	      0.00000000	      0.00000000	     42.53439763	    -39.26466019	     24.07695803	     79.28370221	     51.39095339	      0.00000000	      0.00000000
      7.52500000	    -18.77624761	     -2.15067513	      4.67951482	      0.34025432	      1.14915496	     -0.21896692	      0.00000000	      0.50000000	      0.00000000	      0.25000000	     77.88085276	     -1.32487505	     -0.48078902	    110.23326795	      1.92393347	     19.10993731	     -7.94610644	      0.00000000	      0.00000000	     30.68985288	    -12.83375880	     -7.24645500	     37.82979134	      0.66025441	     -7.27361189	     10.85968586	      0.00000000	      0.00000000	    -54.56914606	      5.07460805	     -8.16376692	     58.86676713	    -14.64699966	     46.51594852	     66.86014678	     47.08312494	      0.00000000	      0.00000000	     42.62030406	    -39.23623593	     24.06787560	     79.27701277	     51.38882687	      0.00000000	      0.00000000
      7.53000000	    -18.53926905	     -2.16627555	      4.69578606	      0.33809402	      1.14954216	     -0.21915504	      0.00000000	      0.50000000	      0.00000000	      0.25000000	     77.82510304	     -1.32246287	     -0.55829319	    109.99278190	      1.91973620	     18.86034664	     -8.53754489	      0.00000000	      0.00000000	     30.86453290	    -13.09194236	     -7.56418175	     38.50133102	      0.67197499	     -7.37484388	     11.25871742	      0.00000000	      0.00000000	    -54.67464826	      5.22056716	     -8.31285111	     59.61219460	    -14.09848751	     46.99969427	     65.75256919	     46.97818633	      0.00000000	      0.00000000	     43.16465901	    -39.33364473	     24.13184127	     78.62453345	     51.30501551	      0.00000000	      0.00000000
      7.53500000	    -18.44694227	     -2.07892084	      4.66382419	      0.33626888	      1.15011782	     -0.21964970	      0.00000000	      0.50000000	      0.00000000	      0.25000000	     77.81713195	     -1.41139969	     -0.50668727	    109.70864160	      1.91477701	     18.87493745	     -8.54871471	      0.00000000	      0.00000000	     30.94749164	    -13.06165760	     -7.62532695	     38.73024454	      0.67597029	     -7.55127298	     11.32850818	      0.00000000	      0.00000000	    -54.66265985	      5.14980698	     -8.44587152	     59.72421907	    -14.12672450	     46.97268655	     65.70211340	     46.96853100	      0.00000000	      0.00000000	     43.20367063	    -39.29394614	     24.14777887	     78.61476652	     51.30570805	      0.00000000	      0.00000000
      7.54000000	    -18.33660483	     -2.02465500	      4.63799373	      0.33423258	      1.15043146	     -0.22012852	      0.00000000	      0.50000000	      0.00000000	      0.25000000	     77.85409497	     -1.46708193	     -0.47004645	    109.57306631	      1.91241078	     18.86374271	     -8.66747099	      0.00000000	      0.00000000	     31.16590891	    -13.14378451	     -7.87088818	     39.16874399	      0.68362355	     -7.87563358	     11.47344874	      0.00000000	      0.00000000	    -54.68885804	      5.05945107	     -8.59353210	     60.05598236	    -14.02566657	     46.96106118	     65.46377133	     46.93128654	      0.00000000	      0.00000000	     43.53534767	    -39.27519712	     24.11813967	     78.54159384	     51.28977798	      0.00000000	      0.00000000
      7.54500000	    -18.26263542	     -1.95542502	      4.61448036	      0.33238155	      1.15097469	     -0.22054657	      0.00000000	      0.50000000	      0.00000000	      0.25000000	     77.83112293	     -1.49890413	     -0.39740841	    109.39053847	      1.90922507	     18.88498709	     -8.73402356	      0.00000000	      0.00000000	     31.27703012	    -13.11235605	     -7.90079852	     39.31267527	      0.68613562	     -7.97965276	     11.56681865	      0.00000000	      0.00000000	    -54.67692844	      5.04653967	     -8.61596361	     60.15821406	    -13.98073347	     46.96179806	     65.39236796	     46.92010945	      0.00000000	      0.00000000	     43.61822501	    -39.26671918	     24.12207016	     78.50173000	     51.28346479	      0.00000000	      0.00000000
      7.55000000	    -18.17432469	     -2.00190114	      4.54675234	      0.33032949	      1.15126493	     -0.22067925	      0.00000000	      0.50000000	      0.00000000	      0.25000000	     77.86758809	     -1.40886599	     -0.48011008	    109.33243393	      1.90821095	     18.78112633	     -9.32484583	      0.00000000	      0.00000000	     31.49872655	    -13.32101729	     -8.11572728	     39.60871995	      0.69130258	     -8.20587042	     11.98984345	      0.00000000	      0.00000000	    -54.48522365	      5.10521359	     -8.67170794	     60.93471926	    -13.23057632	     47.56479729	     63.14581965	     46.66848540	      0.00000000	      0.00000000	     44.42044724	    -39.23947722	     24.93805010	     77.16653969	     51.18079641	      0.00000000	      0.00000000
      7.55500000	    -18.10419605	     -1.99669137	      4.51254260	      0.32852606	      1.15173932	     -0.22107338	      0.00000000	      0.50000000	      0.00000000	      0.25000000	     77.86233974	     -1.41820842	     -0.48046031	    109.33328245	      1.90822576	     18.78374471	     -9.32715519	      0.00000000	      0.00000000	     31.56616895	    -13.31139371	     -8.12655570	     39.59320055	      0.69103171	     -8.20499746	     11.99234829	      0.00000000	      0.00000000	    -54.47929412	      5.10752957	     -8.67483636	     60.93837362	    -13.23084180	     47.56364798	     63.14566480	     46.66838541	      0.00000000	      0.00000000	     44.42424427	    -39.23907785	     24.93754268	     77.16687833	     51.18077639	      0.00000000	      0.00000000
